<svg xmlns="http://www.w3.org/2000/svg" viewBox="0 0 600 600">
  <defs>
    <linearGradient id="bg" x1="0" y1="0" x2="1" y2="1">
      <stop offset="0" stop-color="#fbf8f3"/><stop offset="1" stop-color="#f1eadc"/>
    </linearGradient>
    <radialGradient id="glow" cx="0.8" cy="0.12" r="0.85">
      <stop offset="0" stop-color="#b65b2e" stop-opacity="0.22"/>
      <stop offset="1" stop-color="#b65b2e" stop-opacity="0"/>
    </radialGradient>
    <pattern id="dots" width="26" height="26" patternUnits="userSpaceOnUse">
      <circle cx="2" cy="2" r="1.1" fill="#8c3c18" opacity="0.10"/>
    </pattern>
    <linearGradient id="body" x1="0" y1="0" x2="0" y2="1">
      <stop offset="0" stop-color="#ffffff"/><stop offset="1" stop-color="#f3ecdf"/>
    </linearGradient>
    <linearGradient id="brandfill" x1="0" y1="0" x2="0" y2="1">
      <stop offset="0" stop-color="#b65b2e"/><stop offset="1" stop-color="#8c3c18"/>
    </linearGradient>
    <linearGradient id="cg" x1="0" y1="0" x2="0.6" y2="1">
         <stop offset="0" stop-color="#e0a95c"/><stop offset="1" stop-color="#b8752a"/>
       </linearGradient>
  </defs>
  <rect width="600" height="600" fill="url(#bg)"/>
  <rect width="600" height="600" fill="url(#dots)"/>
  <rect width="600" height="600" fill="url(#glow)"/>
  <circle cx="86" cy="512" r="150" fill="none" stroke="#b65b2e" stroke-opacity="0.12" stroke-width="26"/>
  <ellipse cx="316" cy="486" rx="178" ry="26.7" fill="#4a3a29" opacity="0.10"/>
  <g transform="translate(150 470) rotate(-30) scale(0.9)"><rect x="-19" y="-27" width="38" height="54" rx="19" fill="url(#cg)"/>
        <ellipse cx="-6" cy="-13" rx="6" ry="9" fill="#ffffff" opacity="0.55"/></g>
  <g transform="translate(470 180) rotate(26) scale(0.8)"><rect x="-19" y="-27" width="38" height="54" rx="19" fill="url(#cg)"/>
        <ellipse cx="-6" cy="-13" rx="6" ry="9" fill="#ffffff" opacity="0.55"/></g>
  <g transform="translate(300 300) rotate(-16)">
    <rect x="-92" y="-128" width="184" height="256" rx="92" fill="url(#cg)" stroke="#b8752a" stroke-width="3"/>
    <line x1="-90" y1="-8" x2="90" y2="-8" stroke="#ffffff" stroke-opacity="0.45" stroke-width="4"/>
    <ellipse cx="-34" cy="-66" rx="26" ry="44" fill="#ffffff" opacity="0.55"/>
    <ellipse cx="36" cy="62" rx="18" ry="30" fill="#ffffff" opacity="0.25"/>
  </g>
  <g fill="#b65b2e" opacity="0.55">
    <path d="M150 150 l6 16 16 6 -16 6 -6 16 -6 -16 -16 -6 16 -6 z"/>
    <path d="M462 388 l5 12 12 5 -12 5 -5 12 -5 -12 -12 -5 12 -5 z"/>
  </g>
</svg>
