<svg xmlns="http://www.w3.org/2000/svg" viewBox="0 0 600 600">
  <defs>
    <linearGradient id="bg" x1="0" y1="0" x2="1" y2="1">
      <stop offset="0" stop-color="#fbf8f3"/><stop offset="1" stop-color="#f1eadc"/>
    </linearGradient>
    <radialGradient id="glow" cx="0.8" cy="0.12" r="0.85">
      <stop offset="0" stop-color="#b65b2e" stop-opacity="0.22"/>
      <stop offset="1" stop-color="#b65b2e" stop-opacity="0"/>
    </radialGradient>
    <pattern id="dots" width="26" height="26" patternUnits="userSpaceOnUse">
      <circle cx="2" cy="2" r="1.1" fill="#8c3c18" opacity="0.10"/>
    </pattern>
    <linearGradient id="body" x1="0" y1="0" x2="0" y2="1">
      <stop offset="0" stop-color="#ffffff"/><stop offset="1" stop-color="#f3ecdf"/>
    </linearGradient>
    <linearGradient id="brandfill" x1="0" y1="0" x2="0" y2="1">
      <stop offset="0" stop-color="#b65b2e"/><stop offset="1" stop-color="#8c3c18"/>
    </linearGradient>
    
  </defs>
  <rect width="600" height="600" fill="url(#bg)"/>
  <rect width="600" height="600" fill="url(#dots)"/>
  <rect width="600" height="600" fill="url(#glow)"/>
  <circle cx="86" cy="512" r="150" fill="none" stroke="#b65b2e" stroke-opacity="0.12" stroke-width="26"/>
  <ellipse cx="300" cy="512" rx="168" ry="25.2" fill="#4a3a29" opacity="0.10"/>
  
  <g>
    <rect x="234" y="112" width="132" height="74" rx="14" fill="url(#brandfill)"/>
    <line x1="244" y1="122" x2="244" y2="176" stroke="#ffffff" stroke-opacity="0.18" stroke-width="3"/><line x1="263" y1="122" x2="263" y2="176" stroke="#ffffff" stroke-opacity="0.18" stroke-width="3"/><line x1="282" y1="122" x2="282" y2="176" stroke="#ffffff" stroke-opacity="0.18" stroke-width="3"/><line x1="301" y1="122" x2="301" y2="176" stroke="#ffffff" stroke-opacity="0.18" stroke-width="3"/><line x1="320" y1="122" x2="320" y2="176" stroke="#ffffff" stroke-opacity="0.18" stroke-width="3"/><line x1="339" y1="122" x2="339" y2="176" stroke="#ffffff" stroke-opacity="0.18" stroke-width="3"/><line x1="358" y1="122" x2="358" y2="176" stroke="#ffffff" stroke-opacity="0.18" stroke-width="3"/>
    <rect x="248" y="182" width="104" height="42" fill="#efe7d9"/>
    <rect x="180" y="218" width="240" height="288" rx="26" fill="url(#body)" stroke="#e5dccb" stroke-width="2"/>
    <rect x="196" y="284" width="208" height="158" rx="10" fill="#ffffff" stroke="#eee5d4" stroke-width="1.5"/>
    <rect x="196" y="284" width="208" height="8" rx="4" fill="#b65b2e"/>
    <text x="300" y="342" text-anchor="middle" font-family="'Noto Sans SC','Microsoft YaHei','PingFang SC',sans-serif" font-size="30" font-weight="600" fill="#2f2418">镁维 B6</text>
    <text x="300" y="382" text-anchor="middle" font-family="'Noto Sans SC','Microsoft YaHei','PingFang SC',sans-serif" font-size="27" font-weight="600" fill="#2f2418">缓释片</text>
    <line x1="238" y1="402" x2="362" y2="402" stroke="#e8ddc9" stroke-width="1.5"/>
    <text x="300" y="426" text-anchor="middle" font-family="'Noto Sans SC','Microsoft YaHei','PingFang SC',sans-serif" font-size="18" fill="#8c3c18" letter-spacing="3">元气元素</text>
    <g transform="translate(148 480) rotate(-22) scale(1)"><circle r="21" fill="#faf6ee" stroke="#e6dcc9" stroke-width="2"/>
        <line x1="-13" y1="0" x2="13" y2="0" stroke="#e6dcc9" stroke-width="2" stroke-linecap="round"/>
        <ellipse cx="-7" cy="-8" rx="7" ry="5" fill="#ffffff" opacity="0.6"/></g>
    <g transform="translate(455 468) rotate(18) scale(0.95)"><circle r="21" fill="#faf6ee" stroke="#e6dcc9" stroke-width="2"/>
        <line x1="-13" y1="0" x2="13" y2="0" stroke="#e6dcc9" stroke-width="2" stroke-linecap="round"/>
        <ellipse cx="-7" cy="-8" rx="7" ry="5" fill="#ffffff" opacity="0.6"/></g>
  </g>
</svg>
